{"title":"Snitch.2013.BRRip.XviD.AC3-KoDeKinG","uid":8522562,"size":2042121186,"categoryP":"video","categoryS":"movies","magnet":"?xt=urn:btih:28902e8129f988d0848828efcaf528db0447f74d&amp;dn=Snitch.2013.BRRip.XviD.AC3-KoDeKinG&amp;tr=udp%3A%2F%2Ftracker.openbittorrent.com%3A80&amp;tr=udp%3A%2F%2Fopen.demonii.com%3A1337&amp;tr=udp%3A%2F%2Ftracker.coppersurfer.tk%3A6969&amp;tr=udp%3A%2F%2Fexodus.desync.com%3A6969","seeders":0,"leechers":3,"uploader":"R0thschild","files":4,"time":1369948514,"description":"              ***********************************************\n\n                PublicHash - Largest Bittorrent Community\n      \n                         &lt;a href=&quot; http://publichash.com/&quot; rel=&quot;nofollow&quot; target=&quot;_NEW&quot;&gt; http://publichash.com/&lt;/a&gt;\n    \n              ***********************************************\nGeneral Info\nENCODER: Kobe\nSource Vieeo: 1080p anonymous\nSource Audio: 1080p Anonymous\nChannel: 6 channels\nIMDB: http://www.imdb.com/title/tt1047540/\nsubs: Hardcoded Where Needed\nNEWS: Completely Revamped our encodes!\n\nVideo\nID: 0\nFormat: MPEG-4 Visual\nFormat profile: Advanced Simple@L5\nFormat settings, BVOP: 4\nFormat settings, QPel: Yes\nFormat settings, GMC: No warppoints\nFormat settings, Matrix: Default (H.263)\nMuxing mode: Packed bitstream\nCodec ID: XVID\nCodec ID/Hint: XviD\nDuration: 1h 51mn\nBit rate: 2 007 Kbps\nWidth: 720 pixels\nHeight: 304 pixels\nDisplay aspect ratio: 2.35:1\nFrame rate: 23.976 fps\nColor space: YUV\nChroma subsampling: 4:2:0\nBit depth: 8 bits\nScan type: Progressive\nCompression mode: Lossy\nBits/(Pixel*Frame): 0.382\nStream size: 1.57 GiB (84%)\nWriting library: XviD 64\n\nAudio\nID: 1\nFormat: AC-3\nFormat/Info: Audio Coding 3\nMode extension: CM (complete main)\nFormat settings, Endianness: Big\nCodec ID: 2000\nDuration: 1h 51mn\nBit rate mode: Constant\nBit rate: 384 Kbps\nChannel(s): 6 channels\nChannel positions: Front: L C R, Side: L R, LFE\nSampling rate: 48.0 KHz\nBit depth: 16 bits\nCompression mode: Lossy\nStream size: 307 MiB (16%)\nAlignment: Aligned on interleaves\nInterleave, duration: 64 ms (1.53 video frames)\nInterleave, preload duration: 192 ms\nTitle: ams-snitch-1080p.track_2","torrent":{"xt":"urn:btih:28902e8129f988d0848828efcaf528db0447f74d","amp;dn":"Snitch.2013.BRRip.XviD.AC3-KoDeKinG","amp;tr":["udp%3A%2F%2Ftracker.openbittorrent.com%3A80","udp%3A%2F%2Fopen.demonii.com%3A1337","udp%3A%2F%2Ftracker.coppersurfer.tk%3A6969","udp%3A%2F%2Fexodus.desync.com%3A6969"],"infoHash":"28902e8129f988d0848828efcaf528db0447f74d","infoHashBuffer":{"type":"Buffer","data":[40,144,46,129,41,249,136,208,132,136,40,239,202,245,40,219,4,71,247,77]},"announce":[],"urlList":[]}}